<svg width="16" height="16" viewBox="0 0 16 16" fill="none" xmlns="http://www.w3.org/2000/svg">
<path d="M8 15.2H8.00024C11.9746 15.1953 15.1953 11.9746 15.2 8.00024V8C15.2 4.02356 11.9764 0.8 8 0.8C4.02356 0.8 0.8 4.02356 0.8 8C0.8 11.9764 4.02356 15.2 8 15.2ZM8 14.1C4.63105 14.1 1.9 11.3689 1.9 8C1.9 4.63109 4.63099 1.90006 7.99989 1.9C11.3674 1.90374 14.0963 4.63272 14.1 8.00022C14.0999 11.3691 11.3689 14.1 8 14.1Z" fill="white" stroke="white" stroke-width="0.4"/>
<path d="M8.00008 4.4C7.80501 4.4 7.62887 4.51075 7.50568 4.68673C7.38273 4.86237 7.31675 5.09516 7.31675 5.33333V9.5C7.31675 9.73818 7.38273 9.97096 7.50568 10.1466C7.62887 10.3226 7.80501 10.4333 8.00008 10.4333C8.19515 10.4333 8.3713 10.3226 8.49448 10.1466C8.61743 9.97096 8.68341 9.73818 8.68341 9.5V5.33333C8.68341 5.09516 8.61743 4.86237 8.49448 4.68673C8.3713 4.51075 8.19515 4.4 8.00008 4.4Z" fill="white" stroke="white" stroke-width="0.2"/>
<circle cx="8.00008" cy="12.0833" r="0.683333" fill="white" stroke="white" stroke-width="0.2"/>
</svg>
