<svg width="19" height="17" viewBox="0 0 19 17" fill="none" xmlns="http://www.w3.org/2000/svg">
<path fill-rule="evenodd" clip-rule="evenodd" d="M17.9583 13.3334C17.9583 11.9988 16.877 10.9167 15.5425 10.9167C14.2071 10.9167 13.125 11.9988 13.125 13.3334C13.125 14.6679 14.2071 15.75 15.5425 15.75C16.877 15.75 17.9583 14.6679 17.9583 13.3334Z" stroke="white" stroke-width="1.5" stroke-linecap="round" stroke-linejoin="round"/>
<path fill-rule="evenodd" clip-rule="evenodd" d="M5.87484 3.66667C5.87484 2.33213 4.79271 1.25 3.45817 1.25C2.12363 1.25 1.0415 2.33213 1.0415 3.66667C1.0415 5.00121 2.12363 6.08333 3.45817 6.08333C4.79271 6.08333 5.87484 5.00121 5.87484 3.66667Z" stroke="white" stroke-width="1.5" stroke-linecap="round" stroke-linejoin="round"/>
<path d="M10.708 3.26386H17.1525" stroke="white" stroke-width="1.5" stroke-linecap="round" stroke-linejoin="round"/>
<path d="M7.48595 13.7361H1.0415" stroke="white" stroke-width="1.5" stroke-linecap="round" stroke-linejoin="round"/>
</svg>
