<svg width="16" height="16" viewBox="0 0 16 16" fill="none" xmlns="http://www.w3.org/2000/svg">
<g clip-path="url(#clip0_459_2560)">
<path d="M7.33325 10.6666H8.66659V12H7.33325V10.6666ZM7.99992 1.33331C4.31992 1.33331 1.33325 4.31998 1.33325 7.99998C1.33325 11.68 4.31992 14.6666 7.99992 14.6666C11.6799 14.6666 14.6666 11.68 14.6666 7.99998C14.6666 4.31998 11.6799 1.33331 7.99992 1.33331ZM7.99992 13.3333C5.05992 13.3333 2.66659 10.94 2.66659 7.99998C2.66659 5.05998 5.05992 2.66665 7.99992 2.66665C10.9399 2.66665 13.3333 5.05998 13.3333 7.99998C13.3333 10.94 10.9399 13.3333 7.99992 13.3333ZM7.99992 3.99998C6.52659 3.99998 5.33325 5.19331 5.33325 6.66665H6.66659C6.66659 5.93331 7.26659 5.33331 7.99992 5.33331C8.73325 5.33331 9.33325 5.93331 9.33325 6.66665C9.33325 7.99998 7.33325 7.83331 7.33325 9.99998H8.66659C8.66659 8.49998 10.6666 8.33331 10.6666 6.66665C10.6666 5.19331 9.47325 3.99998 7.99992 3.99998Z" fill="white"/>
</g>
<defs>
<clipPath id="clip0_459_2560">
<rect width="16" height="16" fill="white"/>
</clipPath>
</defs>
</svg>
