<svg width="10" height="12" viewBox="0 0 10 12" fill="none" xmlns="http://www.w3.org/2000/svg">
<path d="M5 11.25C5.08459 11.2495 5.16652 11.2204 5.2325 11.1675C5.375 11.04 9.125 8.0175 9.125 4.875C9.125 3.78098 8.6904 2.73177 7.91682 1.95818C7.14323 1.1846 6.09402 0.75 5 0.75C3.90598 0.75 2.85677 1.1846 2.08318 1.95818C1.3096 2.73177 0.875 3.78098 0.875 4.875C0.875 8.0175 4.625 11.04 4.7675 11.1675C4.83348 11.2204 4.91541 11.2495 5 11.25ZM1.625 4.875C1.625 3.97989 1.98058 3.12145 2.61351 2.48851C3.24645 1.85558 4.10489 1.5 5 1.5C5.89511 1.5 6.75355 1.85558 7.38649 2.48851C8.01942 3.12145 8.375 3.97989 8.375 4.875C8.375 7.2375 5.79875 9.67875 5 10.3837C4.20125 9.67875 1.625 7.2375 1.625 4.875Z" fill="#AE0617"/>
<path d="M6.875 4.875C6.875 4.50416 6.76503 4.14165 6.55901 3.83331C6.35298 3.52496 6.06014 3.28464 5.71753 3.14273C5.37492 3.00081 4.99792 2.96368 4.63421 3.03603C4.27049 3.10838 3.9364 3.28695 3.67418 3.54918C3.41195 3.8114 3.23338 4.14549 3.16103 4.50921C3.08868 4.87292 3.12581 5.24992 3.26773 5.59253C3.40964 5.93514 3.64996 6.22798 3.95831 6.43401C4.26665 6.64003 4.62916 6.75 5 6.75C5.49728 6.75 5.9742 6.55246 6.32583 6.20083C6.67746 5.8492 6.875 5.37228 6.875 4.875ZM3.875 4.875C3.875 4.6525 3.94098 4.43499 4.0646 4.24998C4.18821 4.06498 4.36392 3.92079 4.56948 3.83564C4.77505 3.75049 5.00125 3.72821 5.21948 3.77162C5.43771 3.81503 5.63816 3.92217 5.7955 4.07951C5.95283 4.23684 6.05998 4.4373 6.10338 4.65552C6.14679 4.87375 6.12451 5.09995 6.03937 5.30552C5.95422 5.51109 5.81002 5.68679 5.62502 5.8104C5.44001 5.93402 5.22251 6 5 6C4.70163 6 4.41548 5.88147 4.20451 5.6705C3.99353 5.45952 3.875 5.17337 3.875 4.875Z" fill="#AE0617"/>
</svg>
