<svg width="17" height="17" viewBox="0 0 17 17" fill="none" xmlns="http://www.w3.org/2000/svg">
<path d="M13.685 7.83594V9.16406H7.83594C7.65982 9.16406 7.49091 9.0941 7.36637 8.96956C7.24184 8.84503 7.17188 8.67612 7.17188 8.5C7.17188 8.32388 7.24184 8.15497 7.36637 8.03044C7.49091 7.9059 7.65982 7.83594 7.83594 7.83594H13.685Z" fill="white"/>
<path d="M10.9316 10.1182C10.9315 10.0309 10.9486 9.94454 10.982 9.86396C11.0154 9.78338 11.0644 9.71021 11.1262 9.64867L12.6489 8.12598L11.1262 6.60328C11.0052 6.47804 10.9383 6.31029 10.9398 6.13618C10.9413 5.96206 11.0112 5.79551 11.1343 5.67239C11.2574 5.54926 11.424 5.47942 11.5981 5.47791C11.7722 5.4764 11.94 5.54333 12.0652 5.6643L14.0574 7.65648C14.1819 7.78101 14.2518 7.94989 14.2518 8.12598C14.2518 8.30206 14.1819 8.47094 14.0574 8.59547L12.0652 10.5877C11.9723 10.6805 11.854 10.7437 11.7252 10.7693C11.5964 10.7949 11.4629 10.7818 11.3416 10.7315C11.2203 10.6813 11.1166 10.5962 11.0436 10.487C10.9706 10.3778 10.9317 10.2495 10.9316 10.1182ZM8.12598 2.66406V3.99219C8.12598 4.16831 8.05601 4.33721 7.93148 4.46175C7.80694 4.58629 7.63803 4.65625 7.46191 4.65625C7.28579 4.65625 7.11689 4.58629 6.99235 4.46175C6.86782 4.33721 6.79785 4.16831 6.79785 3.99219V3.32812H3.32812V12.9238H6.79785V12.2598C6.79785 12.0836 6.86782 11.9147 6.99235 11.7902C7.11689 11.6657 7.28579 11.5957 7.46191 11.5957C7.63803 11.5957 7.80694 11.6657 7.93148 11.7902C8.05601 11.9147 8.12598 12.0836 8.12598 12.2598V13.5879C8.12598 13.764 8.05601 13.9329 7.93148 14.0575C7.80694 14.182 7.63803 14.252 7.46191 14.252H2.66406C2.48794 14.252 2.31904 14.182 2.1945 14.0575C2.06996 13.9329 2 13.764 2 13.5879V2.66406C2 2.48794 2.06996 2.31904 2.1945 2.1945C2.31904 2.06996 2.48794 2 2.66406 2H7.46191C7.63803 2 7.80694 2.06996 7.93148 2.1945C8.05601 2.31904 8.12598 2.48794 8.12598 2.66406Z" fill="white"/>
</svg>
