<svg width="32" height="32" viewBox="0 0 32 32" fill="none" xmlns="http://www.w3.org/2000/svg">
<path d="M13.3333 26.6667C13.3333 27.3739 13.6142 28.0522 14.1143 28.5523C14.6144 29.0524 15.2927 29.3333 15.9999 29.3333C16.7072 29.3333 17.3854 29.0524 17.8855 28.5523C18.3856 28.0522 18.6666 27.3739 18.6666 26.6667M17.2359 4.75467L16.6226 4.66667L16.6653 4.048L16.6666 4V2.66667C16.6666 2.48986 16.5963 2.32029 16.4713 2.19526C16.3463 2.07024 16.1767 2 15.9999 2C15.8231 2 15.6535 2.07024 15.5285 2.19526C15.4035 2.32029 15.3333 2.48986 15.3333 2.66667V4L15.3346 4.048L15.3786 4.66667L14.7653 4.75467C12.7019 5.05192 10.8148 6.08281 9.44986 7.65839C8.08488 9.23398 7.33343 11.2487 7.33325 13.3333V22H5.33325C4.80282 22 4.29411 22.2107 3.91904 22.5858C3.54397 22.9609 3.33325 23.4696 3.33325 24C3.33325 24.5304 3.54397 25.0391 3.91904 25.4142C4.29411 25.7893 4.80282 26 5.33325 26H26.6666C27.197 26 27.7057 25.7893 28.0808 25.4142C28.4559 25.0391 28.6666 24.5304 28.6666 24C28.6666 23.4696 28.4559 22.9609 28.0808 22.5858C27.7057 22.2107 27.197 22 26.6666 22H24.6666V13.3333C24.6664 11.2489 23.9152 9.23434 22.5505 7.65878C21.1858 6.08323 19.299 5.05221 17.2359 4.75467Z" stroke="black"/>
</svg>
