<svg width="15" height="17" viewBox="0 0 15 17" fill="none" xmlns="http://www.w3.org/2000/svg">
<path d="M13.8091 3.4115C13.8059 3.346 13.789 3.28189 13.7593 3.22339C13.7296 3.16481 13.6879 3.11317 13.6368 3.07187L13.6366 3.0717C13.5862 3.03104 13.5279 3.00134 13.4653 2.98451C13.4028 2.96767 13.3374 2.96406 13.2734 2.97392L13.2735 2.97426C13.2721 2.97439 13.2707 2.97453 13.2692 2.97468C12.9114 3.0104 9.95272 3.30576 7.83037 1.1712C7.78712 1.12764 7.73568 1.09306 7.67902 1.06945C7.62228 1.04581 7.56142 1.03364 7.49995 1.03364C7.43848 1.03364 7.37762 1.04581 7.32088 1.06945C7.26429 1.09303 7.21291 1.12755 7.16969 1.17104C5.04293 3.30514 2.07126 3.0087 1.72776 2.97443C1.72731 2.97438 1.72686 2.97434 1.72642 2.9743L1.72648 2.97392C1.66247 2.96406 1.59711 2.96767 1.53457 2.98451C1.47204 3.00134 1.4137 3.03104 1.36329 3.0717L1.36308 3.07187C1.31202 3.11317 1.27027 3.16481 1.24058 3.22339C1.21097 3.28181 1.19402 3.34581 1.19083 3.41122C1.11898 4.83881 1.0752 6.56488 1.22463 8.17584C1.37332 9.77875 1.71592 11.3036 2.44279 12.302C3.17898 13.314 4.26865 14.1836 5.22412 14.8154C5.70343 15.1324 6.15256 15.3919 6.51246 15.5818C6.86757 15.7691 7.14719 15.8948 7.28388 15.9373L7.28391 15.9373C7.35376 15.959 7.42648 15.9701 7.49963 15.9702L7.50027 15.9702C7.57342 15.9701 7.64613 15.959 7.71599 15.9373L7.71602 15.9373C7.8529 15.8947 8.132 15.7688 8.48618 15.5813C8.84524 15.3912 9.29332 15.1316 9.7719 14.8147C10.726 14.1828 11.8153 13.3142 12.5566 12.3053L12.5572 12.3045C13.284 11.3048 13.6266 9.77944 13.7753 8.17617C13.9247 6.56498 13.8809 4.83903 13.8091 3.4115ZM13.8091 3.4115C13.8091 3.41159 13.8091 3.41168 13.8091 3.41177L13.6093 3.42128M13.8091 3.4115C13.8091 3.41141 13.8091 3.41132 13.8091 3.41122L13.6093 3.42128M13.6093 3.42128C13.7528 6.27143 13.782 10.2797 12.3954 12.1869L7.68854 1.31221C9.90837 3.54481 13.0175 3.20292 13.2856 3.17344C13.2963 3.17227 13.3024 3.17159 13.3039 3.17159C13.3404 3.16597 13.3777 3.16802 13.4133 3.17763C13.449 3.18723 13.4823 3.20417 13.511 3.22737C13.5402 3.25093 13.564 3.28039 13.5809 3.31381C13.5979 3.34723 13.6075 3.38385 13.6093 3.42128ZM7.49995 1.23364C7.53502 1.23364 7.56973 1.24059 7.6021 1.25407L1.69604 3.17159C1.69718 3.17159 1.70245 3.17217 1.71165 3.17319C1.96042 3.20066 5.08544 3.54581 7.31136 1.31221C7.33605 1.28732 7.36543 1.26756 7.3978 1.25407C7.43016 1.24059 7.46488 1.23364 7.49995 1.23364ZM3.20718 11.7452L3.20712 11.7451C2.61916 10.9373 2.30963 9.63471 2.16873 8.16124C2.03555 6.76851 2.05551 5.25568 2.11247 3.9323C3.13158 3.98519 5.52729 3.87441 7.5126 2.12936C9.47785 3.87226 11.8744 3.97785 12.9006 3.93068C12.9577 5.25821 12.9778 6.77383 12.8461 8.16744C12.7068 9.64098 12.4006 10.9415 11.8192 11.7453C11.1637 12.6441 10.166 13.4405 9.2742 14.0306C8.82996 14.3245 8.41575 14.5647 8.08964 14.7385C7.82062 14.8818 7.62004 14.9753 7.51318 15.0182C7.40622 14.9754 7.20559 14.8821 6.93665 14.7391C6.61056 14.5658 6.19638 14.3261 5.75217 14.0325C4.8604 13.4431 3.86262 12.6466 3.20718 11.7452ZM7.65667 15.7463C7.60592 15.762 7.55309 15.7701 7.49995 15.7702L7.65667 15.7463Z" fill="white" stroke="white" stroke-width="0.4"/>
<path d="M6.8438 10.4005H6.84323C6.78725 10.4003 6.73188 10.3888 6.68046 10.3666L6.73977 10.2289L6.68046 10.3666C6.62936 10.3446 6.5832 10.3126 6.54471 10.2724L5.1535 8.84937C5.15347 8.84934 5.15345 8.84932 5.15342 8.84929C5.11526 8.81029 5.08515 8.76416 5.0648 8.71353C5.04444 8.66286 5.03426 8.60869 5.03484 8.55409C5.03542 8.49949 5.04674 8.44554 5.06817 8.39532C5.0896 8.3451 5.12071 8.29959 5.15973 8.26139M6.8438 10.4005L5.15973 8.26139M6.8438 10.4005H6.84912V10.4007L6.85557 10.4004C6.96745 10.3956 7.073 10.3472 7.14968 10.2656L7.14969 10.2656L7.15108 10.2641L9.86312 7.29704L9.86322 7.29692C9.90004 7.25656 9.92855 7.20934 9.94712 7.15795C9.96569 7.10657 9.97396 7.05203 9.97145 6.99745C9.96894 6.94287 9.95571 6.88932 9.93251 6.83986L9.79718 6.90333L9.93251 6.83985C9.9093 6.79039 9.87659 6.74598 9.83622 6.70916L9.73513 6.81998C9.70932 6.79643 9.67912 6.7782 9.64626 6.76633C9.6134 6.75445 9.57853 6.74917 9.54363 6.75077C9.50873 6.75237 9.47448 6.76083 9.44285 6.77567C9.41122 6.79051 9.38282 6.81143 9.35927 6.83724L9.24857 6.73603L9.24845 6.73616L6.83227 9.3787M6.8438 10.4005L6.83227 9.3787M5.15973 8.26139C5.19875 8.22319 5.2449 8.19305 5.29557 8.17269C5.34623 8.15233 5.40041 8.14215 5.45501 8.14273C5.50961 8.14331 5.56356 8.15464 5.61378 8.17606C5.664 8.19749 5.70951 8.22861 5.74771 8.26762L5.74786 8.26778L6.83227 9.3787M5.15973 8.26139L6.83227 9.3787" fill="white" stroke="white" stroke-width="0.3"/>
</svg>
