<svg width="20" height="20" viewBox="0 0 20 20" fill="none" xmlns="http://www.w3.org/2000/svg">
<g clip-path="url(#clip0_454_2002)">
<path d="M19.4434 10.409C19.4423 10.4112 19.4414 10.413 19.4406 10.4145L19.3753 10.4798V10.5141C19.3647 10.532 19.355 10.5526 19.3476 10.5758C19.3387 10.589 19.3264 10.6052 19.3105 10.6238C19.2867 10.6515 19.2623 10.6762 19.2416 10.6968L15.4098 14.4037L15.4044 14.4089L15.3994 14.4144C15.0442 14.8018 14.4173 14.8134 14.0104 14.4066C13.8074 14.2035 13.7087 13.9338 13.7087 13.7083C13.7087 13.4828 13.8074 13.2131 14.0104 13.0101L15.6771 11.3434L16.1039 10.9167H15.5003H5.54199C4.97173 10.9167 4.54199 10.4869 4.54199 9.91667C4.54199 9.3464 4.97173 8.91667 5.54199 8.91667H15.542H16.1455L15.7188 8.48989L14.0521 6.82322L14.0523 6.82306L14.0443 6.81571C13.6568 6.46056 13.6453 5.83361 14.0521 5.42678L14.0523 5.42694L14.0596 5.41893C14.4148 5.03149 15.0417 5.01994 15.4485 5.42678L19.2402 9.21844C19.3063 9.28453 19.3292 9.30877 19.3462 9.33651C19.3537 9.36152 19.364 9.38354 19.3753 9.40258V9.43689L19.4485 9.51011C19.4557 9.51731 19.4615 9.52303 19.4664 9.52809C19.4707 9.54787 19.4763 9.56455 19.4811 9.57737C19.489 9.59834 19.4983 9.61751 19.5035 9.62783C19.5079 9.65888 19.516 9.6844 19.5228 9.70236C19.5309 9.72412 19.5407 9.74393 19.5457 9.75395L19.5495 9.76897C19.5812 9.89582 19.5812 10.0208 19.5495 10.1477L19.5457 10.1627C19.5407 10.1727 19.5309 10.1925 19.5228 10.2143C19.516 10.2323 19.5079 10.2578 19.5035 10.2888C19.4983 10.2992 19.489 10.3183 19.4811 10.3393C19.4801 10.3419 19.4791 10.3446 19.4781 10.3475C19.4617 10.3723 19.4511 10.3934 19.4449 10.4059C19.4444 10.407 19.4439 10.4081 19.4434 10.409Z" fill="white" stroke="#212121" stroke-width="0.5"/>
<path d="M11.083 12.5007V12.2507H10.833H5.54134C4.30441 12.2507 3.29134 11.2376 3.29134 10.0007C3.29134 8.76372 4.30441 7.75065 5.54134 7.75065H10.833H11.083V7.50065V2.41732C11.083 1.07091 9.97108 -0.0410156 8.62467 -0.0410156H2.41634C1.06994 -0.0410156 -0.0419922 1.07091 -0.0419922 2.41732V17.584C-0.0419922 18.9304 1.06994 20.0423 2.41634 20.0423H8.62467C9.97108 20.0423 11.083 18.9304 11.083 17.584V12.5007Z" fill="white" stroke="white" stroke-width="0.5"/>
</g>
<defs>
<clipPath id="clip0_454_2002">
<rect width="20" height="20" fill="white"/>
</clipPath>
</defs>
</svg>
