<svg xmlns="http://www.w3.org/2000/svg" width="19" height="20" viewBox="0 0 19 20" fill="none">
  <path fill-rule="evenodd" clip-rule="evenodd" d="M13.5869 19.3128H5.63439C2.71324 19.3128 0.472241 18.2577 1.10879 14.0111L1.84997 8.25604C2.24237 6.13711 3.59395 5.32617 4.77985 5.32617H14.4764C15.6796 5.32617 16.9528 6.19816 17.4062 8.25604L18.1474 14.0111C18.688 17.7782 16.5081 19.3128 13.5869 19.3128Z" stroke="white" stroke-linecap="round" stroke-linejoin="round"/>
  <path d="M13.7177 5.11581C13.7177 2.84274 11.875 1.00004 9.60195 1.00004C8.50736 0.995407 7.45602 1.42698 6.68039 2.19934C5.90477 2.97169 5.46874 4.02121 5.46875 5.11581" stroke="white" stroke-linecap="round" stroke-linejoin="round"/>
  <path d="M12.4273 9.4043H12.3838" stroke="white" stroke-linecap="round" stroke-linejoin="round"/>
  <path d="M6.8727 9.4043H6.8291" stroke="white" stroke-linecap="round" stroke-linejoin="round"/>
</svg>