<svg width="27" height="27" viewBox="0 0 27 27" fill="none" xmlns="http://www.w3.org/2000/svg">
<path d="M22.5365 22.4944H4.46338C3.51267 22.4932 2.60122 22.1151 1.92897 21.4428C1.25672 20.7706 0.878558 19.8591 0.877441 18.9084V8.09155C0.878558 7.14085 1.25672 6.2294 1.92897 5.55715C2.60122 4.88489 3.51267 4.50673 4.46338 4.50562H22.5365C23.4872 4.50673 24.3987 4.88489 25.0709 5.55715C25.7432 6.2294 26.1213 7.14085 26.1224 8.09155V18.9084C26.1213 19.8591 25.7432 20.7706 25.0709 21.4428C24.3987 22.1151 23.4872 22.4932 22.5365 22.4944ZM4.46338 5.77124C3.84799 5.77124 3.25781 6.0157 2.82267 6.45084C2.38753 6.88599 2.14307 7.47617 2.14307 8.09155V18.9084C2.14307 19.5238 2.38753 20.114 2.82267 20.5491C3.25781 20.9843 3.84799 21.2287 4.46338 21.2287H22.5365C23.1519 21.2287 23.7421 20.9843 24.1772 20.5491C24.6124 20.114 24.8568 19.5238 24.8568 18.9084V8.09155C24.8568 7.47617 24.6124 6.88599 24.1772 6.45084C23.7421 6.0157 23.1519 5.77124 22.5365 5.77124H4.46338Z" fill="black"/>
<path d="M13.5001 16.065C12.7195 16.0662 11.9597 15.813 11.3359 15.3436L1.4851 7.89328C1.4155 7.84443 1.35646 7.78206 1.3115 7.70988C1.26655 7.63771 1.23659 7.55722 1.22344 7.47321C1.21028 7.3892 1.21419 7.3034 1.23494 7.22094C1.25568 7.13848 1.29283 7.06104 1.34416 6.99326C1.3955 6.92547 1.45997 6.86873 1.53372 6.82641C1.60748 6.7841 1.689 6.75708 1.77343 6.74698C1.85786 6.73687 1.94346 6.74389 2.02512 6.7676C2.10677 6.79131 2.18281 6.83124 2.2487 6.885L12.0995 14.3437C12.504 14.6457 12.9953 14.8089 13.5001 14.8089C14.0049 14.8089 14.4962 14.6457 14.9007 14.3437L24.7515 6.885C24.8174 6.83124 24.8934 6.79131 24.9751 6.7676C25.0567 6.74389 25.1423 6.73687 25.2268 6.74698C25.3112 6.75708 25.3927 6.7841 25.4665 6.82641C25.5402 6.86873 25.6047 6.92547 25.656 6.99326C25.7074 7.06104 25.7445 7.13848 25.7653 7.22094C25.786 7.3034 25.7899 7.3892 25.7768 7.47321C25.7636 7.55722 25.7337 7.63771 25.6887 7.70988C25.6437 7.78206 25.5847 7.84443 25.5151 7.89328L15.6643 15.3436C15.0405 15.813 14.2808 16.0662 13.5001 16.065Z" fill="black"/>
<path d="M1.75923 20.7309C1.63089 20.7311 1.50552 20.6923 1.39976 20.6196C1.294 20.5468 1.21286 20.4437 1.16709 20.3238C1.12132 20.2039 1.1131 20.0729 1.14351 19.9482C1.17392 19.8235 1.24152 19.711 1.33736 19.6256L9.09986 12.7026C9.22517 12.5908 9.3898 12.5332 9.55753 12.5427C9.72526 12.5522 9.88234 12.628 9.99423 12.7533C10.1061 12.8786 10.1636 13.0432 10.1542 13.2109C10.1447 13.3787 10.0689 13.5358 9.94361 13.6476L2.18111 20.5706C2.06583 20.6755 1.91507 20.7328 1.75923 20.7309ZM25.2408 20.7309C25.085 20.7328 24.9342 20.6755 24.8189 20.5706L17.0564 13.6476C16.9311 13.5358 16.8554 13.3787 16.8459 13.2109C16.8364 13.0432 16.8939 12.8786 17.0058 12.7533C17.1177 12.628 17.2748 12.5522 17.4425 12.5427C17.6102 12.5332 17.7749 12.5908 17.9002 12.7026L25.6585 19.6256C25.7543 19.711 25.8219 19.8235 25.8523 19.9482C25.8827 20.0729 25.8745 20.2039 25.8287 20.3238C25.783 20.4437 25.7018 20.5468 25.596 20.6196C25.4903 20.6923 25.3649 20.7311 25.2366 20.7309H25.2408Z" fill="black"/>
</svg>
