<svg width="22" height="19" viewBox="0 0 22 19" fill="none" xmlns="http://www.w3.org/2000/svg">
<g clip-path="url(#clip0_367_1129)">
<path d="M10.6823 0H11.0761C11.3052 0 11.5249 0.0985313 11.6869 0.273918C11.8488 0.449305 11.9399 0.687181 11.9399 0.935215V3.23199H9.8186V0.935215C9.8186 0.687181 9.9096 0.449305 10.0716 0.273918C10.2336 0.0985313 10.4533 0 10.6823 0Z" fill="white"/>
<path d="M16.4812 2.09352L16.8327 2.28568C17.0372 2.39748 17.1923 2.59265 17.2639 2.82826C17.3355 3.06387 17.3177 3.32063 17.2145 3.54204L16.5904 4.88023L14.6969 3.84502L15.3295 2.48842C15.4357 2.27264 15.6157 2.11048 15.831 2.03667C16.0463 1.96286 16.2797 1.98326 16.4812 2.09352Z" fill="white"/>
<path d="M5.198 2.25289L5.55795 2.08002C5.76735 1.97945 6.00508 1.97307 6.21882 2.06228C6.43257 2.15149 6.60484 2.32899 6.69772 2.55572L7.25909 3.92606L5.32003 4.85731L4.75094 3.46811C4.66395 3.24248 4.66204 2.98894 4.7456 2.76179C4.82916 2.53465 4.99156 2.35197 5.198 2.25289Z" fill="white"/>
<path d="M11.0001 18.9999C6.98622 18.9999 3.1756 16.7307 0.336685 12.6116C0.117586 12.2925 -0.000732422 11.9055 -0.000732422 11.5079C-0.000732422 11.1103 0.117586 10.7233 0.336685 10.4042C3.1756 6.28514 6.98622 4.01587 11.0001 4.01587C15.0139 4.01587 18.7992 6.28514 21.6635 10.4042C21.883 10.7218 22.0017 11.1078 22.0017 11.5045C22.0017 11.9011 21.883 12.2872 21.6635 12.6047C18.7928 16.7375 15.0076 18.9999 11.0001 18.9999ZM1.82918 11.5045C4.3696 15.0803 7.58957 17.047 11.0001 17.047C14.4106 17.047 17.6623 15.0803 20.171 11.5457C17.6306 7.96991 14.4042 6.0032 11.0001 6.0032C7.59592 6.0032 4.33784 7.93552 1.82918 11.5045Z" fill="white"/>
<path d="M11 9.37275C11.3907 9.37275 11.7726 9.49818 12.0974 9.73318C12.4222 9.96817 12.6753 10.3022 12.8248 10.693C12.9743 11.0837 13.0135 11.5137 12.9372 11.9286C12.861 12.3434 12.6729 12.7245 12.3967 13.0236C12.1204 13.3227 11.7685 13.5264 11.3854 13.6089C11.0022 13.6914 10.6051 13.6491 10.2442 13.4872C9.88324 13.3253 9.57476 13.0512 9.35772 12.6995C9.14069 12.3478 9.02485 11.9343 9.02485 11.5114C9.02485 10.9442 9.23295 10.4002 9.60336 9.99914C9.97378 9.59807 10.4762 9.37275 11 9.37275ZM11 7.99744C10.3581 7.99744 9.73068 8.20352 9.19698 8.58964C8.66328 8.97576 8.24731 9.52456 8.00168 10.1666C7.75604 10.8087 7.69178 11.5153 7.817 12.1969C7.94222 12.8785 8.25132 13.5047 8.70519 13.9961C9.15906 14.4875 9.73734 14.8222 10.3669 14.9578C10.9964 15.0934 11.649 15.0238 12.242 14.7578C12.835 14.4919 13.3418 14.0415 13.6985 13.4636C14.0551 12.8857 14.2454 12.2064 14.2454 11.5114C14.2454 10.5794 13.9035 9.68563 13.2949 9.02664C12.6862 8.36765 11.8607 7.99744 11 7.99744Z" fill="white"/>
</g>
<defs>
<clipPath id="clip0_367_1129">
<rect width="22" height="19" fill="white"/>
</clipPath>
</defs>
</svg>
