<svg width="27" height="24" viewBox="0 0 27 24" fill="none" xmlns="http://www.w3.org/2000/svg">
<path d="M23.4916 4.74638C23.4763 4.70926 23.4537 4.67562 23.4252 4.64744C23.41 4.63288 23.3913 4.62438 23.3738 4.61285C23.3581 4.60253 23.3454 4.58917 23.3279 4.5825C23.3001 4.57096 23.2711 4.56854 23.2421 4.5655C23.2324 4.56429 23.2233 4.56004 23.2136 4.56004C23.1734 4.55981 23.1336 4.56766 23.0964 4.5831L21.1421 5.39586L20.6798 4.27415L22.3549 3.57732L22.4704 3.85775C22.5019 3.93076 22.5607 3.9884 22.6341 4.01827C22.7076 4.04814 22.7898 4.04784 22.863 4.01743C22.9362 3.98703 22.9946 3.92895 23.0256 3.85572C23.0566 3.78248 23.0577 3.69994 23.0287 3.62588L22.7979 3.06503C22.7827 3.02813 22.7605 2.9946 22.7324 2.96636C22.7043 2.93811 22.671 2.91571 22.6343 2.90043C22.5975 2.88515 22.5582 2.8773 22.5185 2.87731C22.4787 2.87733 22.4394 2.88522 22.4027 2.90053L20.1692 3.82983C20.1324 3.84506 20.0991 3.86741 20.0709 3.89562C20.0428 3.92382 20.0205 3.95732 20.0053 3.99419C19.9901 4.03107 19.9823 4.07059 19.9823 4.11051C19.9823 4.15042 19.9902 4.18994 20.0054 4.2268L20.6991 5.90877C20.7259 5.9698 20.7723 6.02004 20.8309 6.05141C20.8753 6.07897 20.9262 6.09426 20.9783 6.09572C21.018 6.09582 21.0578 6.08797 21.0944 6.07265L23.0487 5.2599L23.511 6.38161L21.8364 7.07843L21.721 6.798C21.6895 6.725 21.6307 6.66735 21.5572 6.63749C21.4838 6.60762 21.4016 6.60792 21.3284 6.63832C21.2552 6.66873 21.1968 6.7268 21.1658 6.80004C21.1348 6.87328 21.1336 6.95581 21.1626 7.02987L21.3941 7.59073C21.4248 7.66499 21.4836 7.72399 21.5576 7.75482C21.6315 7.78565 21.7146 7.78579 21.7887 7.75522L24.0216 6.82592C24.0956 6.79517 24.1545 6.73613 24.1852 6.6618C24.2159 6.58747 24.216 6.50394 24.1854 6.42956L23.4916 4.74638ZM26.9772 5.26779L25.7052 2.18368L26.2636 1.9512L26.379 2.23163C26.4105 2.30464 26.4693 2.36228 26.5428 2.39215C26.6162 2.42202 26.6984 2.42172 26.7716 2.39131C26.8448 2.36091 26.9032 2.30283 26.9342 2.22959C26.9652 2.15636 26.9664 2.07382 26.9374 1.99976L26.7059 1.4383C26.6752 1.36404 26.6164 1.30504 26.5424 1.27421C26.4685 1.24338 26.3854 1.24324 26.3113 1.27381L25.1952 1.73815L25.194 1.73876L24.0778 2.2031C24.0411 2.21833 24.0077 2.24069 23.9796 2.26889C23.9515 2.29709 23.9291 2.33059 23.9139 2.36747C23.8987 2.40434 23.8909 2.44387 23.8909 2.48378C23.8909 2.52369 23.8988 2.56321 23.914 2.60007L24.1455 3.16093C24.1762 3.23519 24.235 3.29419 24.309 3.32502C24.3829 3.35585 24.466 3.35599 24.5401 3.32542C24.6141 3.29467 24.673 3.23563 24.7037 3.1613C24.7344 3.08697 24.7345 3.00344 24.7039 2.92906L24.5884 2.64863L25.1468 2.41616L26.4189 5.50026C26.4496 5.57452 26.5084 5.63352 26.5824 5.66435C26.6563 5.69518 26.7394 5.69532 26.8135 5.66476C26.8875 5.63374 26.9462 5.57458 26.9769 5.5002C27.0076 5.42582 27.0077 5.34226 26.9772 5.26779ZM16.0986 5.85171L17.2546 8.65539L17.4861 9.21685C17.508 9.26584 17.5426 9.30799 17.5864 9.33885C17.5973 9.34675 17.6063 9.35342 17.6178 9.3601C17.6287 9.36617 17.6371 9.37649 17.6492 9.38134C17.7232 9.41151 17.8061 9.41151 17.8801 9.38134L20.113 8.45205C20.187 8.42129 20.2458 8.36225 20.2766 8.28792C20.3073 8.2136 20.3073 8.13006 20.2767 8.05568L19.583 6.37372C19.5522 6.29946 19.4935 6.24046 19.4195 6.20963C19.3455 6.1788 19.2624 6.17866 19.1884 6.20922L18.0716 6.67357C17.9989 6.70524 17.9416 6.76433 17.9118 6.83809C17.8821 6.91186 17.8824 6.9944 17.9127 7.06794C17.9429 7.14149 18.0007 7.20015 18.0737 7.23129C18.1466 7.26243 18.2287 7.26355 18.3025 7.23443L19.14 6.88602L19.6023 8.00773L17.9278 8.70455L16.7718 5.90027L18.4463 5.20345L18.5617 5.48387C18.5933 5.55688 18.6521 5.61453 18.7255 5.64439C18.799 5.67426 18.8811 5.67396 18.9544 5.64355C19.0276 5.61315 19.086 5.55507 19.117 5.48184C19.148 5.4086 19.1491 5.32606 19.1201 5.252L18.8887 4.69115C18.8579 4.61689 18.7991 4.55789 18.7252 4.52706C18.6512 4.49623 18.5681 4.49609 18.494 4.52665L16.2611 5.45595C16.2246 5.47117 16.1913 5.49349 16.1633 5.52163C16.1354 5.54977 16.1132 5.58318 16.0981 5.61994C16.083 5.65671 16.0753 5.69611 16.0753 5.73588C16.0754 5.77565 16.0833 5.81501 16.0986 5.85171ZM10.5583 20.9681C10.5431 20.9312 10.5209 20.8977 10.4928 20.8695C10.4647 20.8413 10.4313 20.8189 10.3946 20.8036L9.72077 20.5232L8.72246 18.1019L9.53464 17.5022C9.57176 17.4748 9.60215 17.4392 9.62347 17.3982C9.64479 17.3571 9.65648 17.3117 9.65764 17.2655C9.65881 17.2192 9.64942 17.1732 9.6302 17.1312C9.61097 17.0891 9.58242 17.052 9.54673 17.0227L7.6341 15.4555L7.63048 15.4537L7.34102 14.7514L7.58032 14.6518L5.26221 9.04629L1.39951 10.653C1.36277 10.6682 1.32939 10.6906 1.30127 10.7188C1.27315 10.747 1.25085 10.7805 1.23564 10.8173C1.22043 10.8542 1.21261 10.8937 1.21262 10.9337C1.21264 10.9736 1.2205 11.0131 1.23574 11.05L1.58261 11.8912L0.18667 12.4721C0.112633 12.5029 0.0537891 12.5619 0.0230784 12.6362C-0.00763235 12.7106 -0.00769498 12.7941 0.0229043 12.8685L0.948093 15.1113C0.978843 15.1856 1.03763 15.2446 1.11158 15.2754C1.18554 15.3062 1.26864 15.3064 1.3427 15.2758L2.73864 14.6949L3.31696 16.0971C3.34771 16.1713 3.4065 16.2303 3.48045 16.2611C3.55441 16.292 3.63751 16.2921 3.71157 16.2616L4.0252 16.1311L8.47832 23.8483C8.51496 23.912 8.5734 23.9602 8.64277 23.9839C8.71213 24.0075 8.7877 24.0051 8.8554 23.977L11.0889 23.0471C11.1256 23.0318 11.159 23.0095 11.1871 22.9813C11.2153 22.9531 11.2376 22.9196 11.2528 22.8827C11.268 22.8458 11.2758 22.8063 11.2758 22.7664C11.2758 22.7265 11.2679 22.687 11.2527 22.6501L10.5583 20.9681ZM1.39044 14.599L0.696702 12.9171L1.81346 12.4521L2.5072 14.1347L1.39044 14.599ZM4.23732 14.6998C4.16741 14.6997 4.09968 14.6754 4.04566 14.6308C3.99165 14.5862 3.95468 14.5243 3.94107 14.4554C3.92745 14.3865 3.93804 14.315 3.97101 14.2531C4.00398 14.1912 4.0573 14.1427 4.12189 14.1159L5.50937 13.5629C5.58311 13.5338 5.66528 13.5349 5.73819 13.566C5.8111 13.5972 5.86892 13.6558 5.89919 13.7294C5.92946 13.8029 5.92976 13.8855 5.90003 13.9592C5.87029 14.033 5.8129 14.0921 5.74022 14.1237L4.35274 14.6767C4.31617 14.692 4.27693 14.6999 4.23732 14.6998ZM4.89238 16.423L5.60485 16.1268C5.67859 16.0977 5.76076 16.0988 5.83367 16.1299C5.90658 16.1611 5.9644 16.2197 5.99467 16.2933C6.02494 16.3668 6.02524 16.4494 5.99551 16.5231C5.96577 16.5969 5.90838 16.656 5.8357 16.6877L5.19755 16.9529L4.89238 16.423ZM5.50394 17.4828L6.25508 17.1702C6.32789 17.1455 6.40734 17.1494 6.47733 17.1813C6.54733 17.2133 6.60261 17.2707 6.63198 17.3421C6.66134 17.4134 6.66259 17.4933 6.63547 17.5656C6.60835 17.6378 6.55489 17.697 6.48593 17.7311L5.80911 18.0127L5.50394 17.4828ZM6.11549 18.5426L6.88477 18.2221C6.9585 18.193 7.04067 18.1941 7.11358 18.2253C7.1865 18.2564 7.24431 18.3151 7.27458 18.3886C7.30485 18.4622 7.30515 18.5447 7.27542 18.6185C7.24569 18.6922 7.1883 18.7513 7.11561 18.783L6.42066 19.0725L6.11549 18.5426ZM7.78216 19.8197L7.03282 20.1317L6.72705 19.6018L7.55071 19.2589C7.62364 19.2335 7.70347 19.237 7.77388 19.2688C7.84429 19.3006 7.89996 19.3581 7.92951 19.4298C7.95907 19.5014 7.96027 19.5816 7.93288 19.6541C7.9055 19.7266 7.85158 19.7858 7.78216 19.8197ZM8.11755 16.6349L8.86265 17.2455L8.48436 17.5247L8.11755 16.6349ZM21.8528 10.8794L19.363 9.94402C19.2879 9.91577 19.2048 9.91864 19.1318 9.95199C19.0588 9.98534 19.002 10.0464 18.9739 10.1219C18.9457 10.1973 18.9486 10.2808 18.9818 10.3542C19.015 10.4275 19.0758 10.4845 19.1509 10.5128L21.6406 11.4481C21.7157 11.4763 21.7987 11.4733 21.8716 11.44C21.9444 11.4066 22.0011 11.3456 22.0292 11.2703C22.0574 11.195 22.0547 11.1114 22.0216 11.0381C21.9885 10.9648 21.9278 10.9077 21.8528 10.8794ZM16.2418 3.94455C16.3168 3.97267 16.3999 3.96973 16.4727 3.93638C16.5456 3.90304 16.6023 3.84201 16.6304 3.76671L17.4994 1.43466C17.5133 1.39731 17.5198 1.35758 17.5184 1.31772C17.517 1.27787 17.5079 1.23867 17.4914 1.20237C17.475 1.16608 17.4516 1.13338 17.4226 1.10617C17.3935 1.07895 17.3595 1.05775 17.3223 1.04376C17.2851 1.02977 17.2456 1.02327 17.2059 1.02464C17.1662 1.026 17.1272 1.03521 17.091 1.05172C17.0549 1.06824 17.0224 1.09174 16.9953 1.12089C16.9682 1.15004 16.9471 1.18426 16.9331 1.2216L16.0641 3.55365C16.0362 3.62916 16.0392 3.71273 16.0725 3.78602C16.1058 3.85931 16.1667 3.91633 16.2418 3.94455ZM14.9462 4.23226L14.974 4.23348C15.0493 4.23336 15.1218 4.20506 15.1775 4.15411C15.2331 4.10316 15.2679 4.0332 15.2749 3.95791L15.6067 0.331153C15.6103 0.291455 15.6062 0.251422 15.5944 0.21334C15.5827 0.175259 15.5636 0.139875 15.5382 0.109211C15.5128 0.0785468 15.4817 0.0532034 15.4466 0.0346278C15.4115 0.0160522 15.3731 0.0046089 15.3335 0.00095148C15.254 -0.00534662 15.1751 0.0198018 15.1137 0.0710438C15.0523 0.122286 15.0132 0.195574 15.0048 0.27531L14.673 3.90206C14.6694 3.94176 14.6735 3.98179 14.6853 4.01988C14.697 4.05796 14.7161 4.09334 14.7415 4.12401C14.7669 4.15467 14.798 4.18001 14.8331 4.19859C14.8682 4.21716 14.9067 4.22861 14.9462 4.23226ZM18.2366 11.141C18.1748 11.0918 18.0963 11.0687 18.0178 11.0769C17.9394 11.085 17.8672 11.1236 17.8167 11.1845C17.7662 11.2453 17.7414 11.3236 17.7476 11.4026C17.7538 11.4816 17.7905 11.555 17.8499 11.6072L20.6375 13.9356C20.6679 13.9612 20.7031 13.9806 20.741 13.9925C20.7789 14.0044 20.8187 14.0087 20.8583 14.0051C20.8978 14.0015 20.9363 13.9901 20.9714 13.9715C21.0065 13.9529 21.0376 13.9275 21.0629 13.8967C21.1142 13.8349 21.1389 13.7552 21.1317 13.675C21.1244 13.5949 21.0858 13.5209 21.0243 13.4694L18.2366 11.141Z" fill="black"/>
<path d="M5.82031 8.81437L8.13902 14.4211L14.8679 13.941L10.9128 4.37789L5.82031 8.81437ZM13.5947 2.95147C13.4717 2.65429 13.2364 2.4182 12.9404 2.29498C12.6444 2.17175 12.3119 2.17144 12.0156 2.2941C11.7201 2.41752 11.4853 2.65352 11.3626 2.95045C11.24 3.24737 11.2394 3.58103 11.3612 3.87834L15.5798 14.0776C15.7182 14.3454 15.9519 14.5511 16.2344 14.6537C16.517 14.7562 16.8276 14.7482 17.1045 14.6311C17.4003 14.5076 17.6353 14.2713 17.7579 13.9739C17.8805 13.6766 17.8806 13.3425 17.7583 13.0451L13.5947 2.95147Z" fill="black"/>
</svg>
