<svg width="29" height="29" viewBox="0 0 29 29" fill="none" xmlns="http://www.w3.org/2000/svg">
<path fill-rule="evenodd" clip-rule="evenodd" d="M10.2705 12.0835C9.86996 12.0835 9.48582 12.2426 9.20259 12.5258C8.91936 12.8091 8.76024 13.1932 8.76024 13.5938C8.76024 13.9943 8.91936 14.3784 9.20259 14.6617C9.48582 14.9449 9.86996 15.104 10.2705 15.104C10.6711 15.104 11.0552 14.9449 11.3384 14.6617C11.6217 14.3784 11.7808 13.9943 11.7808 13.5938C11.7808 13.1932 11.6217 12.8091 11.3384 12.5258C11.0552 12.2426 10.6711 12.0835 10.2705 12.0835ZM7.55176 13.5938C7.55176 12.8727 7.8382 12.1812 8.34806 11.6713C8.85793 11.1614 9.54945 10.875 10.2705 10.875C10.9916 10.875 11.6831 11.1614 12.193 11.6713C12.7028 12.1812 12.9893 12.8727 12.9893 13.5938C12.9893 14.3148 12.7028 15.0063 12.193 15.5162C11.6831 16.0261 10.9916 16.3125 10.2705 16.3125C9.54945 16.3125 8.85793 16.0261 8.34806 15.5162C7.8382 15.0063 7.55176 14.3148 7.55176 13.5938Z" fill="black"/>
<path fill-rule="evenodd" clip-rule="evenodd" d="M10.2705 16.917C8.38913 16.917 6.94774 18.314 6.94774 19.9375C6.94774 20.0978 6.88408 20.2515 6.77076 20.3648C6.65745 20.4781 6.50375 20.5418 6.3435 20.5418C6.18325 20.5418 6.02955 20.4781 5.91624 20.3648C5.80292 20.2515 5.73926 20.0978 5.73926 19.9375C5.73926 17.5572 7.81457 15.7085 10.2705 15.7085C12.7264 15.7085 14.8018 17.5572 14.8018 19.9375C14.8018 20.0168 14.7861 20.0954 14.7558 20.1687C14.7254 20.2419 14.6809 20.3085 14.6248 20.3646C14.5688 20.4207 14.5022 20.4652 14.4289 20.4956C14.3556 20.5259 14.2771 20.5415 14.1977 20.5415C14.1184 20.5415 14.0399 20.5259 13.9666 20.4956C13.8933 20.4652 13.8267 20.4207 13.7706 20.3646C13.7146 20.3085 13.6701 20.2419 13.6397 20.1687C13.6094 20.0954 13.5937 20.0168 13.5937 19.9375C13.5937 18.314 12.1528 16.917 10.2705 16.917ZM16.9169 11.7813C16.9169 11.4478 17.1875 11.1772 17.5214 11.1772H22.6562C22.8165 11.1772 22.9702 11.2409 23.0835 11.3542C23.1968 11.4675 23.2605 11.6212 23.2605 11.7815C23.2605 11.9417 23.1968 12.0954 23.0835 12.2088C22.9702 12.3221 22.8165 12.3857 22.6562 12.3857H17.521C17.4416 12.3858 17.3629 12.3702 17.2896 12.3398C17.2162 12.3095 17.1495 12.265 17.0934 12.2088C17.0373 12.1527 16.9927 12.086 16.9624 12.0127C16.932 11.9393 16.9169 11.8607 16.9169 11.7813ZM16.9169 19.8772C16.9169 19.5433 17.1875 19.2728 17.5214 19.2728H22.6562C22.7356 19.2728 22.8141 19.2884 22.8875 19.3188C22.9608 19.3491 23.0274 19.3936 23.0835 19.4498C23.1396 19.5059 23.1841 19.5725 23.2145 19.6458C23.2448 19.7191 23.2605 19.7977 23.2605 19.877C23.2605 19.9564 23.2448 20.0349 23.2145 20.1083C23.1841 20.1816 23.1396 20.2482 23.0835 20.3043C23.0274 20.3604 22.9608 20.4049 22.8875 20.4353C22.8141 20.4656 22.7356 20.4813 22.6562 20.4813H17.521C17.4416 20.4813 17.3629 20.4657 17.2896 20.4354C17.2162 20.405 17.1495 20.3605 17.0934 20.3043C17.0373 20.2482 16.9927 20.1815 16.9624 20.1082C16.932 20.0348 16.9164 19.9562 16.9165 19.8768L16.9169 19.8772ZM16.9169 15.8295C16.9169 15.496 17.1875 15.2255 17.5214 15.2255H22.6562C22.7355 15.2255 22.8141 15.2411 22.8874 15.2714C22.9607 15.3018 23.0272 15.3463 23.0833 15.4024C23.1394 15.4585 23.1839 15.5251 23.2143 15.5983C23.2446 15.6716 23.2602 15.7502 23.2602 15.8295C23.2602 15.9088 23.2446 15.9873 23.2143 16.0606C23.1839 16.1339 23.1394 16.2005 23.0833 16.2566C23.0272 16.3127 22.9607 16.3572 22.8874 16.3875C22.8141 16.4179 22.7355 16.4335 22.6562 16.4335H17.521C17.4416 16.4336 17.363 16.418 17.2897 16.3876C17.2163 16.3573 17.1497 16.3128 17.0936 16.2567C17.0374 16.2007 16.9929 16.134 16.9625 16.0607C16.9321 15.9874 16.9169 15.9088 16.9169 15.8295Z" fill="black"/>
<path fill-rule="evenodd" clip-rule="evenodd" d="M12.6875 6.34375C12.6875 5.86305 12.8785 5.40203 13.2184 5.06212C13.5583 4.72221 14.0193 4.53125 14.5 4.53125C14.9807 4.53125 15.4417 4.72221 15.7816 5.06212C16.1215 5.40203 16.3125 5.86305 16.3125 6.34375V8.76027C16.3125 9.24097 16.1215 9.70199 15.7816 10.0419C15.4417 10.3818 14.9807 10.5728 14.5 10.5728C14.0193 10.5728 13.5583 10.3818 13.2184 10.0419C12.8785 9.70199 12.6875 9.24097 12.6875 8.76027V6.34375ZM14.5 5.73973C14.1665 5.73973 13.896 6.01025 13.896 6.34375V8.76027C13.896 8.92046 13.9596 9.07409 14.0729 9.18737C14.1862 9.30064 14.3398 9.36428 14.5 9.36428C14.6602 9.36428 14.8138 9.30064 14.9271 9.18737C15.0404 9.07409 15.104 8.92046 15.104 8.76027V6.34375C15.104 6.01025 14.8335 5.73973 14.5 5.73973Z" fill="black"/>
<path fill-rule="evenodd" clip-rule="evenodd" d="M12.6875 7.55225H5.43749C4.63627 7.55225 3.86787 7.87053 3.30133 8.43707C2.73479 9.00362 2.4165 9.77202 2.4165 10.5732V20.8438C2.4165 21.645 2.73479 22.4134 3.30133 22.9799C3.86787 23.5465 4.63627 23.8647 5.43749 23.8647H23.5625C24.3637 23.8647 25.1321 23.5465 25.6986 22.9799C26.2652 22.4134 26.5835 21.645 26.5835 20.8438V10.5732C26.5835 9.77202 26.2652 9.00362 25.6986 8.43707C25.1321 7.87053 24.3637 7.55225 23.5625 7.55225H16.3125V8.15626C16.3125 8.40684 16.3125 8.60168 16.3043 8.76073H23.5625C24.0432 8.76073 24.5042 8.95169 24.8441 9.2916C25.184 9.63151 25.375 10.0925 25.375 10.5732V20.8438C25.375 21.3245 25.184 21.7855 24.8441 22.1254C24.5042 22.4653 24.0432 22.6563 23.5625 22.6563H5.43749C4.95678 22.6563 4.49577 22.4653 4.15586 22.1254C3.81595 21.7855 3.62499 21.3245 3.62499 20.8438V10.5732C3.62499 10.0925 3.81595 9.63151 4.15586 9.2916C4.49577 8.95169 4.95678 8.76073 5.43749 8.76073H12.6956C12.6875 8.60214 12.6875 8.40729 12.6875 8.15626V7.55225Z" fill="black"/>
</svg>
