<svg width="20" height="20" viewBox="0 0 20 20" fill="none" xmlns="http://www.w3.org/2000/svg">
<path d="M18.7086 14.8434C19.5349 13.3629 19.9688 11.6955 19.9688 10C19.9688 8.30446 19.5349 6.6371 18.7086 5.15657C18.7043 5.10842 18.6896 5.06178 18.6655 5.01988C18.6414 4.97798 18.6084 4.94181 18.569 4.91388C17.4545 3.03521 15.7538 1.57459 13.7284 0.756604C11.703 -0.0613861 9.46493 -0.191469 7.35837 0.386355C5.2518 0.964179 3.39334 2.21792 2.06871 3.95482C0.74408 5.69172 0.0266113 7.81563 0.0266113 10C0.0266113 12.1844 0.74408 14.3083 2.06871 16.0452C3.39334 17.7821 5.2518 19.0358 7.35837 19.6137C9.46493 20.1915 11.703 20.0614 13.7284 19.2434C15.7538 18.4254 17.4545 16.9648 18.569 15.0861C18.6084 15.0582 18.6414 15.022 18.6655 14.9801C18.6896 14.9382 18.7043 14.8916 18.7086 14.8434ZM4.28688 15.1563H5.86091C6.19048 16.4535 6.79295 17.6654 7.62813 18.7113C6.15921 17.9188 4.98684 16.6714 4.28688 15.1563ZM0.727345 10.3438H2.44403C2.47538 11.754 2.7455 13.1488 3.24291 14.4688H1.86791C1.16926 13.2023 0.778536 11.7892 0.727345 10.3438ZM1.8686 5.53125H3.2436C2.74619 6.85125 2.47607 8.246 2.44472 9.65625H0.727345C0.778748 8.21074 1.16971 6.79763 1.8686 5.53125ZM15.7131 4.84375H14.1391C13.8095 3.54655 13.2071 2.33456 12.3719 1.28869C13.8408 2.08117 15.0132 3.32857 15.7131 4.84375ZM19.2727 9.65625H17.556C17.5246 8.246 17.2545 6.85125 16.7571 5.53125H18.1321C18.8307 6.79769 19.2215 8.2108 19.2727 9.65625ZM16.8685 9.65625H14.8084C14.7935 8.26762 14.6291 6.88464 14.3178 5.53125H16.0232C16.5505 6.8443 16.8368 8.24163 16.8685 9.65625ZM9.65625 5.53125V9.65625H5.87913C5.89753 8.26585 6.07351 6.88201 6.40369 5.53125H9.65625ZM6.59344 4.84375C7.28094 2.57982 8.39881 1.00166 9.65625 0.75519V4.84375H6.59344ZM9.65625 10.3438V14.4688H6.40369C6.07351 13.118 5.89753 11.7342 5.87913 10.3438H9.65625ZM9.65625 15.1563V19.2448C8.39881 18.9983 7.28128 17.4202 6.59344 15.1563H9.65625ZM10.3438 14.4688V10.3438H14.1209C14.1025 11.7342 13.9265 13.118 13.5963 14.4688H10.3438ZM13.4066 15.1563C12.7191 17.4202 11.6008 18.9983 10.3438 19.2448V15.1563H13.4066ZM10.3438 9.65625V5.53125H13.5963C13.9265 6.88201 14.1025 8.26585 14.1209 9.65625H10.3438ZM10.3438 4.84375V0.75519C11.6008 1.00166 12.7184 2.57982 13.4066 4.84375H10.3438ZM7.62813 1.28869C6.79295 2.33456 6.19048 3.54655 5.86091 4.84375H4.28688C4.98684 3.32857 6.15921 2.08117 7.62813 1.28869ZM5.68181 5.53125C5.37072 6.88465 5.20638 8.26764 5.19163 9.65625H3.13153C3.16305 8.24166 3.44927 6.84432 3.97647 5.53125H5.68181ZM3.13153 10.3438H5.19163C5.20638 11.7324 5.37072 13.1154 5.68181 14.4688H3.97647C3.44927 13.1557 3.16305 11.7584 3.13153 10.3438ZM12.3719 18.7113C13.2071 17.6654 13.8095 16.4535 14.1391 15.1563H15.7131C15.0132 16.6714 13.8408 17.9188 12.3719 18.7113ZM14.3178 14.4688C14.6291 13.1154 14.7935 11.7324 14.8084 10.3438H16.8685C16.8368 11.7584 16.5505 13.1557 16.0232 14.4688H14.3178ZM17.556 10.3438H19.2727C19.2213 11.7893 18.8303 13.2024 18.1314 14.4688H16.7564C17.2541 13.1488 17.5244 11.754 17.556 10.3438ZM17.7127 4.84375H16.4701C15.9443 3.66956 15.184 2.61532 14.2357 1.74588C15.6375 2.46857 16.8337 3.53428 17.7127 4.84375ZM5.76397 1.74588C4.81592 2.61543 4.05567 3.66965 3.52994 4.84375H2.28728C3.1662 3.53429 4.36223 2.46858 5.76397 1.74588ZM2.28728 15.1563H3.52994C4.05578 16.3304 4.81614 17.3846 5.76431 18.2541C4.36244 17.5315 3.16629 16.4658 2.28728 15.1563ZM14.2357 18.2541C15.184 17.3847 15.9443 16.3304 16.4701 15.1563H17.7127C16.8337 16.4657 15.6375 17.5314 14.2357 18.2541Z" fill="black"/>
</svg>
