<svg width="24" height="14" viewBox="0 0 24 14" fill="none" xmlns="http://www.w3.org/2000/svg">
<path d="M23.9314 5.11761C23.8148 4.94698 23.5814 4.90343 23.4105 5.0195C22.5054 5.63787 21.5982 6.29646 20.7129 6.97817C20.5863 7.07628 20.3545 7.15207 20.2773 7.04112L17.2067 2.56873C17.1266 2.45361 17.2936 2.26231 17.4226 2.18431C18.0777 1.78526 18.7292 1.37117 19.3587 0.953465C19.5314 0.83923 19.5784 0.606402 19.464 0.433949C19.3493 0.261496 19.1167 0.213918 18.9443 0.328856C18.3228 0.741074 17.6795 1.14968 17.0333 1.54325C16.815 1.67557 16.6464 1.85979 16.5448 2.06679C14.6185 2.06679 10.7464 2.06679 7.45538 2.06679C7.3538 1.85984 7.18538 1.67571 6.96755 1.54362C6.32063 1.14968 5.67736 0.741121 5.05589 0.328856C4.88363 0.213918 4.65099 0.261496 4.53619 0.433949C4.42177 0.606402 4.46883 0.83923 4.64143 0.953465C5.27096 1.37121 5.92243 1.78526 6.57835 2.18468C6.80855 2.32414 6.82786 2.52003 6.7936 2.56836L3.72291 7.04117C3.6435 7.15522 3.41007 7.07281 3.28669 6.97784C2.40197 6.29651 1.49475 5.63787 0.589738 5.0195C0.418925 4.90306 0.185347 4.94703 0.068769 5.11761C-0.0479966 5.28856 -0.00407476 5.52214 0.166878 5.63895C1.06018 6.24889 1.95586 6.89909 2.82849 7.57128C3.37275 7.99264 4.03772 7.90672 4.34091 7.46586L4.49944 7.23495C4.67897 7.39864 4.88283 7.6144 4.9838 7.81845C5.02697 7.90545 5.06035 7.9789 5.10357 8.07561C5.01183 8.14732 4.92591 8.22715 4.85475 8.32334C4.42805 8.89995 4.54979 9.71604 5.12569 10.1422L5.17257 10.177C5.17275 10.1773 5.17294 10.1773 5.17294 10.1773C5.41707 10.3582 5.70286 10.4523 6.06521 10.4184C6.09783 10.8426 6.29827 11.168 6.594 11.3869H6.59419C6.87277 11.5932 7.22522 11.6913 7.60402 11.6277C7.65479 12.0115 7.85175 12.3179 8.12925 12.5233C8.42068 12.7392 8.78058 12.8368 9.19318 12.7506C9.25013 13.0504 9.41166 13.3151 9.65832 13.4972C10.1349 13.8505 10.8074 13.813 11.2457 13.3546C11.8806 13.7059 12.6474 13.504 13.0406 12.9315C13.1693 12.7441 13.2388 12.5355 13.2649 12.3241L13.4443 12.452C14.0689 12.8809 14.9266 12.7216 15.3557 12.0968C15.4853 11.908 15.5549 11.6976 15.5803 11.4843C16.2283 11.8738 17.0221 11.6656 17.4193 11.0875C17.5466 10.9021 17.6186 10.6924 17.6449 10.4754L17.6637 10.4881C18.2859 10.916 19.1423 10.7633 19.5752 10.133C20.0039 9.50843 19.8445 8.651 19.2177 8.22045L19.1599 8.18135L19.9286 7.71593C20.3207 7.94914 20.8133 7.84868 21.1712 7.5717C22.0444 6.89914 22.9401 6.24893 23.8334 5.639C24.0043 5.52218 24.0482 5.28861 23.9314 5.11761ZM5.61919 9.57462L5.57232 9.53984C5.32814 9.359 5.27668 9.01339 5.45738 8.76917C5.64146 8.52092 5.98702 8.47582 6.22749 8.65386L6.27474 8.68901C6.48113 8.84187 6.54807 9.11197 6.45535 9.33945C6.41686 9.39256 6.30718 9.54401 6.3015 9.55203C6.11096 9.71286 5.82844 9.72968 5.61919 9.57462ZM7.04007 10.7843C6.79974 10.6062 6.7268 10.2681 6.9023 10.001C6.96549 9.93167 7.21861 9.57214 7.3381 9.407C7.52461 9.15532 7.88546 9.09068 8.14941 9.28582C8.40661 9.47618 8.46099 9.84012 8.27058 10.0971L7.85157 10.6632C7.66069 10.9205 7.29863 10.9749 7.04007 10.7843ZM8.5755 11.9207H8.57532C8.31769 11.7297 8.26369 11.3677 8.45349 11.1101C8.45368 11.1098 8.45391 11.1096 8.45414 11.1094C8.634 10.8664 9.28571 9.98614 9.24586 10.0399C9.43772 9.78106 9.801 9.72912 10.0572 9.91878C10.3138 10.109 10.3698 10.4713 10.1783 10.7301L9.38663 11.7995C9.19693 12.0554 8.835 12.1127 8.5755 11.9207ZM10.8556 12.6518L10.7467 12.7986C10.5961 13.0022 10.3074 13.045 10.1042 12.8945C10.104 12.8945 10.104 12.8945 10.1038 12.8945C9.90136 12.7447 9.85604 12.4578 10.0081 12.252L10.117 12.1048C10.2683 11.9008 10.5555 11.8574 10.7597 12.0089C10.9635 12.1597 11.0063 12.4479 10.8556 12.6518ZM18.9569 9.70864C18.7695 9.98173 18.3851 10.0747 18.0861 9.86862C12.7511 6.21814 14.5912 7.4772 14.1931 7.20481C14.0227 7.08692 13.7891 7.13084 13.6719 7.30146C13.5546 7.47242 13.598 7.70567 13.7688 7.82281L16.6398 9.79395C16.9204 9.98646 16.9995 10.3747 16.8013 10.6627C16.6063 10.9472 16.217 11.0193 15.9325 10.8245L13.0613 8.85303C12.8635 8.71653 12.6153 8.81862 12.5066 8.98372C12.3922 9.15617 12.4394 9.38862 12.612 9.50323L14.5758 10.8036C14.8598 10.9988 14.9322 11.3887 14.7375 11.6724C14.5421 11.9565 14.1524 12.0286 13.874 11.8375L12.0256 10.5199C11.8565 10.3998 11.6228 10.4386 11.5027 10.6077C11.3826 10.7762 11.4218 11.0104 11.5904 11.1305C12.506 11.8279 12.1935 11.592 12.2609 11.6383C12.5448 11.8335 12.6173 12.223 12.4223 12.5071C12.2527 12.7543 11.9266 12.8524 11.6424 12.7177C11.7806 12.2451 11.6241 11.716 11.2058 11.4062C11.0711 11.3065 10.9202 11.2385 10.762 11.2014L10.7809 11.1759C11.2189 10.5845 11.0929 9.75237 10.5032 9.31606C10.0528 8.98231 9.46894 8.97912 9.02752 9.24401C8.93846 9.02839 8.79619 8.83175 8.59538 8.68306C8.15269 8.35503 7.57758 8.34289 7.13011 8.60609C7.04208 8.40692 6.90835 8.22514 6.72127 8.08667L6.67402 8.05151C6.42089 7.86406 6.11471 7.78315 5.80435 7.80556C5.74608 7.67679 5.71243 7.6001 5.65552 7.4855C5.48082 7.13243 5.16005 6.81284 4.92764 6.61095L7.41174 2.99257C7.44966 2.93736 7.47882 2.87787 7.50254 2.81646H9.19946C8.3978 3.27701 7.90008 4.13211 7.90008 5.05817V5.52532C7.90008 6.13386 8.4908 6.55728 9.06174 6.37798C9.48277 6.24692 9.83129 5.93937 10.07 5.48871C10.3064 5.04279 10.7663 4.76567 11.2709 4.76567C11.7263 4.76567 12.1426 4.96446 12.3846 5.29728C12.6634 5.68095 13.2054 6.13822 14.2047 6.13822C14.5975 6.13822 14.9772 6.25465 15.3028 6.47506L18.7951 8.83976C19.0792 9.035 19.1517 9.4249 18.9569 9.70864ZM15.7232 5.85425C15.2731 5.54965 14.7479 5.38854 14.2048 5.38854C13.656 5.38854 13.2478 5.20953 12.9912 4.85661C12.6086 4.33015 11.9655 4.016 11.271 4.016C10.4882 4.016 9.77414 4.44579 9.40749 5.13814C9.26143 5.41381 9.07032 5.59029 8.83908 5.66206C8.74622 5.69211 8.64999 5.62395 8.64999 5.52551V5.05836C8.64999 4.39315 9.01097 3.77806 9.59199 3.45368L10.7335 2.81665C11.3365 2.81665 15.0805 2.81665 16.4976 2.81665C16.5213 2.87815 16.5505 2.93773 16.5886 2.99314L19.4345 7.13834L18.4763 7.71842L15.7232 5.85425Z" fill="white"/>
</svg>
