<svg width="14" height="18" viewBox="0 0 14 18" fill="none" xmlns="http://www.w3.org/2000/svg">
<path d="M7.04187 18C7.32453 18 8.2318 17.5998 9.52991 16.3252C11.5922 14.3096 14 10.7674 14 7.43269C14 5.46142 13.2625 3.57088 11.9497 2.17698C10.637 0.783085 8.85651 0 7 0C5.14348 0 3.36301 0.783085 2.05025 2.17698C0.737498 3.57088 0 5.46142 0 7.43269C0 12.6719 5.74726 17.8888 7.04187 18ZM7 3.00494C7.6598 3.00494 8.30478 3.21269 8.85338 3.60191C9.40198 3.99113 9.82956 4.54435 10.0821 5.1916C10.3345 5.83885 10.4006 6.55107 10.2719 7.23819C10.1432 7.92531 9.82545 8.55647 9.3589 9.05185C8.89235 9.54724 8.29794 9.8846 7.65082 10.0213C7.0037 10.158 6.33294 10.0878 5.72337 9.8197C5.1138 9.5516 4.59279 9.09759 4.22622 8.51508C3.85966 7.93257 3.66401 7.24772 3.66401 6.54714C3.66493 5.60799 4.0167 4.70759 4.64212 4.04351C5.26754 3.37943 6.11552 3.00592 7 3.00494Z" fill="black"/>
</svg>
