<svg width="20" height="20" viewBox="0 0 20 20" fill="none" xmlns="http://www.w3.org/2000/svg">
<path d="M9.86096 0.0234257C4.41696 0.0234257 0 4.4844 0 9.9934C0 15.5034 4.41696 19.9994 9.86096 19.9994C15.305 19.9994 19.722 15.5024 19.722 9.9934C19.722 7.8184 19.042 5.83341 17.873 4.19341L19.396 3.43145C19.731 3.26845 19.812 2.74543 19.541 2.48943L18.381 1.32939L17.2211 0.169422C17.146 0.0958747 17.0527 0.0435865 16.9508 0.0179326C16.8489 -0.00772136 16.7419 -0.00581542 16.641 0.0234257C16.4987 0.074396 16.3816 0.178248 16.314 0.313404L15.553 1.83641C13.8894 0.656841 11.9003 0.0233166 9.86096 0.0234257ZM9.86096 1.1834C11.799 1.1834 13.565 1.83945 15.009 2.92345L13.994 4.95342V4.99041C13.984 4.97841 13.966 5.00241 13.958 4.99041C12.832 4.07641 11.422 3.50341 9.86096 3.50341C6.26996 3.50341 3.33496 6.4014 3.33496 9.9934C3.33496 13.5844 6.26996 16.5194 9.86096 16.5194C13.453 16.5194 16.387 13.5844 16.387 9.9934C16.3889 8.43247 15.8219 6.9244 14.792 5.75145L16.786 4.73644C17.882 6.21144 18.562 7.9974 18.562 9.9934C18.562 14.8844 14.6691 18.8394 9.86206 18.8394C5.05306 18.8394 1.16003 14.8844 1.16003 9.9934C1.16003 5.1024 5.05296 1.1834 9.86096 1.1834ZM9.86096 4.66344C11.0551 4.66325 12.2157 5.05888 13.161 5.78844L11.4561 7.45641C10.9931 7.17541 10.44 6.98442 9.86096 6.98442C8.19096 6.98442 6.81604 8.32443 6.81604 9.99443C6.8205 10.8006 7.14268 11.5725 7.71277 12.1426C8.28285 12.7127 9.05475 13.035 9.86096 13.0394C10.6673 13.035 11.4394 12.7126 12.0095 12.1423C12.5796 11.572 12.9018 10.7998 12.906 9.9934C12.906 9.3224 12.701 8.7164 12.326 8.2174L13.958 6.58544C14.743 7.51044 15.2271 8.6784 15.2271 9.9934C15.2273 10.6981 15.0887 11.3961 14.8191 12.0472C14.5495 12.6984 14.1542 13.29 13.6559 13.7883C13.1576 14.2866 12.5659 14.682 11.9148 14.9515C11.2636 15.2211 10.5657 15.3597 9.86096 15.3594C9.15621 15.3597 8.4584 15.2211 7.80725 14.9515C7.1561 14.682 6.56437 14.2866 6.06604 13.7883C5.56771 13.29 5.17253 12.6984 4.90295 12.0472C4.63338 11.3961 4.49473 10.6981 4.495 9.9934C4.495 7.0294 6.89596 4.66344 9.86096 4.66344ZM9.86096 8.1444C10.121 8.1444 10.3611 8.19842 10.5861 8.28942L9.46204 9.44945C9.39823 9.49938 9.34557 9.56208 9.3075 9.63359C9.26942 9.70511 9.24677 9.7838 9.24097 9.86461C9.23516 9.94542 9.24634 10.0265 9.2738 10.1028C9.30127 10.179 9.34438 10.2486 9.40039 10.3072C9.4564 10.3657 9.52406 10.4119 9.599 10.4427C9.67394 10.4735 9.75446 10.4882 9.83545 10.486C9.91644 10.4837 9.99609 10.4646 10.0692 10.4297C10.1423 10.3948 10.2073 10.345 10.26 10.2834L11.4921 9.05144C11.6611 9.32744 11.746 9.6414 11.746 9.9934C11.7462 10.2411 11.6978 10.4864 11.6031 10.7153C11.5085 10.9441 11.3697 11.1521 11.1946 11.3273C11.0195 11.5024 10.8116 11.6414 10.5828 11.7361C10.3539 11.8309 10.1086 11.8796 9.86096 11.8794C9.6133 11.8796 9.36811 11.8309 9.13928 11.7361C8.91046 11.6414 8.70254 11.5024 8.52747 11.3273C8.35239 11.1521 8.21352 10.9441 8.1189 10.7153C8.02427 10.4864 7.97581 10.2411 7.97607 9.9934C7.97607 8.9514 8.81896 8.1444 9.86096 8.1444Z" fill="white"/>
</svg>
