<svg width="22" height="18" viewBox="0 0 22 18" fill="none" xmlns="http://www.w3.org/2000/svg">
<path d="M2.68198 0.825229C2.61841 0.827683 2.55658 0.846631 2.50255 0.880212C2.44852 0.913793 2.40415 0.960851 2.37381 1.01676C2.34347 1.07268 2.3282 1.13552 2.32949 1.19912C2.33079 1.26272 2.34861 1.32489 2.3812 1.37953L3.66453 3.60244C3.68859 3.64419 3.72063 3.68079 3.75884 3.71015C3.79705 3.7395 3.84066 3.76104 3.8872 3.77354C3.93373 3.78603 3.98227 3.78923 4.03005 3.78295C4.07782 3.77668 4.12388 3.76105 4.16561 3.73696C4.20734 3.71287 4.24392 3.6808 4.27325 3.64257C4.30257 3.60434 4.32408 3.56071 4.33654 3.51417C4.349 3.46762 4.35216 3.41908 4.34585 3.37131C4.33953 3.32354 4.32387 3.27749 4.29975 3.23578L3.01642 1.01286C2.98342 0.953767 2.93471 0.90496 2.87568 0.871844C2.81665 0.838728 2.74961 0.822594 2.68198 0.825229ZM19.3539 0.986361C19.2881 0.9859 19.2234 1.00314 19.1666 1.03628C19.1097 1.06942 19.0629 1.11723 19.0309 1.17471L17.7475 3.39762C17.7212 3.43936 17.7035 3.486 17.6956 3.53474C17.6876 3.58348 17.6897 3.63332 17.7015 3.68127C17.7133 3.72921 17.7347 3.77427 17.7643 3.81376C17.794 3.85324 17.8313 3.88632 17.874 3.91103C17.9168 3.93574 17.9641 3.95155 18.0131 3.95753C18.0621 3.96351 18.1119 3.95953 18.1593 3.94583C18.2067 3.93213 18.2509 3.90898 18.2892 3.87779C18.3275 3.84659 18.3591 3.80799 18.382 3.76429L19.6654 1.54137C19.6986 1.48595 19.7165 1.42274 19.7174 1.35816C19.7183 1.29357 19.7021 1.22989 19.6705 1.17356C19.6389 1.11724 19.593 1.07026 19.5373 1.03739C19.4817 1.00451 19.4184 0.986912 19.3539 0.986361ZM15.3112 1.17471C15.2476 1.17716 15.1858 1.19611 15.1318 1.22969C15.0778 1.26327 15.0334 1.31033 15.003 1.36624C14.9727 1.42215 14.9574 1.485 14.9587 1.5486C14.96 1.6122 14.9778 1.67437 15.0104 1.729L16.2938 3.95192C16.3178 3.99364 16.3499 4.03021 16.3881 4.05955C16.4263 4.08888 16.4699 4.1104 16.5164 4.12287C16.563 4.13535 16.6115 4.13854 16.6592 4.13226C16.707 4.12598 16.753 4.11036 16.7948 4.08628C16.8365 4.0622 16.873 4.03014 16.9024 3.99192C16.9317 3.95371 16.9532 3.9101 16.9657 3.86357C16.9781 3.81704 16.9813 3.76852 16.975 3.72076C16.9687 3.67301 16.9531 3.62696 16.929 3.58525L15.6457 1.36234C15.6127 1.30324 15.5639 1.25444 15.5049 1.22132C15.4459 1.18821 15.3788 1.17207 15.3112 1.17471ZM0.663881 4.49046C0.615293 4.48978 0.567054 4.49875 0.521965 4.51687C0.476877 4.53499 0.435839 4.56189 0.401237 4.596C0.366635 4.63012 0.339158 4.67077 0.320404 4.7156C0.30165 4.76043 0.291992 4.80854 0.291992 4.85713C0.291992 4.90572 0.30165 4.95383 0.320404 4.99866C0.339158 5.04348 0.366635 5.08414 0.401237 5.11825C0.435839 5.15237 0.476877 5.17927 0.521965 5.19739C0.567054 5.21551 0.615293 5.22448 0.663881 5.2238H3.23055C3.27914 5.22448 3.32738 5.21551 3.37246 5.19739C3.41755 5.17927 3.45859 5.15237 3.49319 5.11825C3.52779 5.08414 3.55527 5.04348 3.57403 4.99866C3.59278 4.95383 3.60244 4.90572 3.60244 4.85713C3.60244 4.80854 3.59278 4.76043 3.57403 4.7156C3.55527 4.67077 3.52779 4.63012 3.49319 4.596C3.45859 4.56189 3.41755 4.53499 3.37246 4.51687C3.32738 4.49875 3.27914 4.48978 3.23055 4.49046H0.663881ZM18.4966 4.49046C18.448 4.48978 18.3998 4.49875 18.3547 4.51687C18.3096 4.53499 18.2686 4.56189 18.234 4.596C18.1994 4.63012 18.1719 4.67077 18.1532 4.7156C18.1344 4.76043 18.1247 4.80854 18.1247 4.85713C18.1247 4.90572 18.1344 4.95383 18.1532 4.99866C18.1719 5.04348 18.1994 5.08414 18.234 5.11825C18.2686 5.15237 18.3096 5.17927 18.3547 5.19739C18.3998 5.21551 18.448 5.22448 18.4966 5.2238H21.0633C21.1119 5.22448 21.1601 5.21551 21.2052 5.19739C21.2503 5.17927 21.2913 5.15237 21.3259 5.11825C21.3605 5.08414 21.388 5.04348 21.4068 4.99866C21.4255 4.95383 21.4352 4.90572 21.4352 4.85713C21.4352 4.80854 21.4255 4.76043 21.4068 4.7156C21.388 4.67077 21.3605 4.63012 21.3259 4.596C21.2913 4.56189 21.2503 4.53499 21.2052 4.51687C21.1601 4.49875 21.1119 4.48978 21.0633 4.49046H18.4966ZM5.23003 4.9667C5.17164 4.96663 5.11409 4.9805 5.06215 5.00715C5.0102 5.03381 4.96538 5.07248 4.93139 5.11996L2.26876 8.8389C2.21725 8.91078 2.19345 8.99885 2.20174 9.08689C2.21003 9.17493 2.24986 9.257 2.31388 9.318L10.7401 17.3259C10.7422 17.3281 10.7443 17.3303 10.7465 17.3324H10.7472C10.7559 17.3407 10.765 17.3486 10.7744 17.356C10.7747 17.356 10.7749 17.356 10.7752 17.356C10.7846 17.3637 10.7944 17.3709 10.8046 17.3775C10.8048 17.3775 10.805 17.3775 10.8053 17.3775C10.8153 17.384 10.8255 17.39 10.8361 17.3954C10.8363 17.3954 10.8366 17.3954 10.8368 17.3954C10.8586 17.4063 10.8814 17.4149 10.9048 17.4212C10.9051 17.4212 10.9053 17.4212 10.9056 17.4212C10.9171 17.4244 10.9289 17.427 10.9407 17.4291C10.9409 17.4291 10.9412 17.4291 10.9414 17.4291C10.9656 17.4329 10.99 17.4344 11.0145 17.4334C11.0154 17.4334 11.0164 17.4334 11.0174 17.4334C11.0408 17.4323 11.0641 17.4289 11.0869 17.4234C11.0987 17.4204 11.1104 17.4168 11.1219 17.4126C11.1568 17.4004 11.1897 17.3831 11.2193 17.3611C11.229 17.3536 11.2384 17.3458 11.2473 17.3374C11.2492 17.3358 11.2511 17.3341 11.253 17.3324L19.6863 9.318C19.7504 9.257 19.7902 9.17492 19.7985 9.08688C19.8068 8.99885 19.783 8.91078 19.7315 8.8389L17.0688 5.11995C17.0348 5.07245 16.99 5.03377 16.938 5.00711C16.886 4.98045 16.8284 4.9666 16.77 4.9667H5.23003ZM5.41837 5.70003H7.00105L6.68452 6.76852C6.67718 6.79176 6.67455 6.81622 6.67678 6.84049C6.679 6.86475 6.68605 6.88833 6.69749 6.90984C6.70893 6.93135 6.72455 6.95037 6.74343 6.96578C6.7623 6.98118 6.78406 6.99267 6.80743 6.99957C6.8308 7.00648 6.85531 7.00865 6.87953 7.00597C6.90375 7.00329 6.92719 6.99581 6.94848 6.98397C6.96978 6.97212 6.9885 6.95615 7.00355 6.93699C7.0186 6.91783 7.02968 6.89586 7.03615 6.87236L7.38348 5.70003H8.12612L7.25815 8.63337H6.23335C6.18476 8.63268 6.13652 8.64166 6.09143 8.65977C6.04634 8.67789 6.0053 8.70479 5.9707 8.73891C5.9361 8.77302 5.90862 8.81368 5.88987 8.8585C5.87112 8.90333 5.86146 8.95144 5.86146 9.00003C5.86146 9.04863 5.87112 9.09673 5.88987 9.14156C5.90862 9.18639 5.9361 9.22704 5.9707 9.26116C6.0053 9.29527 6.04634 9.32217 6.09143 9.34029C6.13652 9.35841 6.18476 9.36739 6.23335 9.3667H7.25314L9.9437 15.5578L3.42964 9.3667H4.76668C4.81527 9.36739 4.86351 9.35841 4.9086 9.34029C4.95368 9.32217 4.99472 9.29527 5.02932 9.26116C5.06393 9.22704 5.0914 9.18639 5.11016 9.14156C5.12891 9.09673 5.13857 9.04863 5.13857 9.00003C5.13857 8.95144 5.12891 8.90333 5.11016 8.8585C5.0914 8.81368 5.06393 8.77302 5.02932 8.73891C4.99472 8.70479 4.95368 8.67789 4.9086 8.65977C4.86351 8.64166 4.81527 8.63268 4.76668 8.63337H3.31792L5.41837 5.70003ZM8.89025 5.70003H13.1098L13.977 8.63337H12.4667C12.4181 8.63268 12.3699 8.64166 12.3248 8.65977C12.2797 8.67789 12.2386 8.70479 12.204 8.73891C12.1694 8.77302 12.142 8.81368 12.1232 8.8585C12.1044 8.90333 12.0948 8.95144 12.0948 9.00003C12.0948 9.04863 12.1044 9.09673 12.1232 9.14156C12.142 9.18639 12.1694 9.22704 12.204 9.26116C12.2386 9.29527 12.2797 9.32217 12.3248 9.34029C12.3699 9.35841 12.4181 9.36739 12.4667 9.3667H13.947L11 16.1465L8.05307 9.3667H11C11.0486 9.36739 11.0968 9.35841 11.1419 9.34029C11.187 9.32217 11.2281 9.29527 11.2627 9.26116C11.2973 9.22704 11.3247 9.18639 11.3435 9.14156C11.3622 9.09673 11.3719 9.04863 11.3719 9.00003C11.3719 8.95144 11.3622 8.90333 11.3435 8.8585C11.3247 8.81368 11.2973 8.77302 11.2627 8.73891C11.2281 8.70479 11.187 8.67789 11.1419 8.65977C11.0968 8.64166 11.0486 8.63268 11 8.63337H8.023L8.89025 5.70003ZM13.8739 5.70003H16.5817L18.6821 8.63337H17.8922L17.3508 7.87712C17.3333 7.85181 17.3096 7.83134 17.2821 7.81757C17.2546 7.8038 17.224 7.79719 17.1932 7.79834C17.1599 7.79951 17.1274 7.80976 17.0995 7.82801C17.0715 7.84625 17.049 7.87179 17.0345 7.90186C17.02 7.93193 17.014 7.9654 17.0171 7.99865C17.0202 8.0319 17.0323 8.06367 17.0522 8.09053L17.441 8.63337H14.7419L13.8739 5.70003ZM16.3604 6.63603C16.3271 6.63732 16.2947 6.64767 16.2668 6.66596C16.239 6.68426 16.2166 6.7098 16.2022 6.73985C16.1877 6.76991 16.1818 6.80332 16.1849 6.83651C16.1881 6.86971 16.2002 6.90141 16.22 6.92822L16.5287 7.35934C16.5427 7.37895 16.5604 7.39561 16.5809 7.40837C16.6013 7.42113 16.6241 7.42973 16.6478 7.43369C16.6716 7.43765 16.6959 7.43688 16.7194 7.43144C16.7429 7.426 16.7651 7.41599 16.7847 7.40197C16.8043 7.38796 16.821 7.37022 16.8337 7.34977C16.8465 7.32931 16.8551 7.30655 16.859 7.28278C16.863 7.259 16.8622 7.23468 16.8568 7.2112C16.8513 7.18772 16.8413 7.16554 16.8273 7.14593L16.5179 6.71409C16.5003 6.68892 16.4766 6.66859 16.4491 6.65495C16.4216 6.64131 16.3911 6.6348 16.3604 6.63603ZM14.7469 9.3667H18.5704L12.0563 15.5578L14.7469 9.3667ZM12.5111 10.3765C12.475 10.3767 12.4398 10.3875 12.4099 10.4077C12.3799 10.4278 12.3566 10.4563 12.3428 10.4896L11.4583 12.5249C11.4474 12.5472 11.441 12.5714 11.4397 12.5962C11.4383 12.621 11.442 12.6458 11.4506 12.6691C11.4591 12.6924 11.4723 12.7138 11.4893 12.7318C11.5063 12.7499 11.5268 12.7643 11.5496 12.7742C11.5724 12.7841 11.5969 12.7893 11.6217 12.7895C11.6466 12.7896 11.6712 12.7847 11.694 12.775C11.7169 12.7654 11.7376 12.7512 11.7548 12.7333C11.772 12.7154 11.7854 12.6942 11.7942 12.671L12.6787 10.6357C12.6914 10.6077 12.6969 10.577 12.6946 10.5463C12.6923 10.5157 12.6824 10.4861 12.6657 10.4603C12.649 10.4345 12.6261 10.4133 12.5991 10.3986C12.5721 10.384 12.5418 10.3764 12.5111 10.3765ZM11.1934 13.4079C11.1573 13.4081 11.1221 13.419 11.0922 13.4391C11.0622 13.4592 11.0389 13.4877 11.0251 13.5211L10.811 14.0131C10.7916 14.0577 10.7907 14.1082 10.8086 14.1535C10.8265 14.1987 10.8616 14.235 10.9062 14.2544C10.9508 14.2738 11.0013 14.2746 11.0466 14.2568C11.0919 14.2389 11.1282 14.2038 11.1475 14.1591L11.3617 13.6672C11.3744 13.6391 11.3799 13.6083 11.3776 13.5776C11.3753 13.5469 11.3653 13.5173 11.3486 13.4914C11.3318 13.4656 11.3088 13.4444 11.2817 13.4298C11.2545 13.4152 11.2242 13.4077 11.1934 13.4079Z" fill="white"/>
</svg>
