<svg width="22" height="16" viewBox="0 0 22 16" fill="none" xmlns="http://www.w3.org/2000/svg">
<path d="M22 2.59565C22 1.61521 21.2109 0.82608 20.2304 0.82608H1.76957C0.789131 0.82608 0 1.61521 0 2.59565V13.4283C0 14.3848 0.789131 15.1739 1.76957 15.1739H20.2543C21.2348 15.1739 22.0239 14.3848 22.0239 13.4043V2.59565H22ZM20.087 2.73912V4.41304H1.91304V2.73912H20.087ZM1.91304 13.2609V7.2826H20.087V13.2609H1.91304ZM18.2935 10.1522C18.2935 10.6783 17.863 11.1087 17.337 11.1087H12.7935C12.2674 11.1087 11.837 10.6783 11.837 10.1522C11.837 9.62608 12.2674 9.19565 12.7935 9.19565H17.337C17.863 9.19565 18.2935 9.62608 18.2935 10.1522Z" fill="black"/>
</svg>
